<svg width="73" height="72" viewBox="0 0 73 72" fill="none" xmlns="http://www.w3.org/2000/svg">
<path d="M36.6504 72C46.1982 72 55.3549 68.2072 62.1062 61.4558C68.8575 54.7045 72.6504 45.5478 72.6504 36C72.6504 26.4522 68.8575 17.2955 62.1062 10.5442C55.3549 3.79285 46.1982 0 36.6504 0C27.1026 0 17.9459 3.79285 11.1945 10.5442C4.44324 17.2955 0.650391 26.4522 0.650391 36C0.650391 45.5478 4.44324 54.7045 11.1945 61.4558C17.9459 68.2072 27.1026 72 36.6504 72Z" fill="#FF9235"/>
<path d="M33.401 35.9024C31.1703 44.2388 29.9869 48.8363 30.0497 48.8782C30.2068 48.9725 34.2179 50.0407 34.2493 49.9988C34.2598 49.9779 35.8202 44.1655 37.7263 37.0859C39.9675 28.6972 41.1404 24.1834 41.0671 24.1415C40.9624 24.0787 37.0246 23 36.9094 23C36.8885 23 35.3071 28.8124 33.401 35.9024Z" fill="white"/>
<path d="M17.2837 30.2262L11 36.5098L17.3046 42.8144L23.6197 49.1295L25.1906 47.5586L26.7615 45.9877L22.0278 41.254L17.2837 36.5098L22.0278 31.7657L26.7615 27.032L25.2116 25.482C24.3633 24.6337 23.6511 23.9425 23.6197 23.9425C23.5883 23.9425 20.7397 26.7701 17.2837 30.2262Z" fill="white"/>
<path d="M45.8955 25.482L44.356 27.032L49.0897 31.7657L53.8338 36.5098L49.0897 41.254L44.356 45.9877L45.9269 47.5586L47.4978 49.1295L53.8129 42.8144L60.1175 36.5098L53.8338 30.2262C50.3778 26.7701 47.5292 23.9425 47.4978 23.9425C47.4664 23.9425 46.7542 24.6337 45.8955 25.482Z" fill="white"/>
</svg>
