<svg width="73" height="72" viewBox="0 0 73 72" fill="none" xmlns="http://www.w3.org/2000/svg">
<path d="M36.6499 72C46.1977 72 55.3544 68.2072 62.1057 61.4558C68.8571 54.7045 72.6499 45.5478 72.6499 36C72.6499 26.4522 68.8571 17.2955 62.1057 10.5442C55.3544 3.79285 46.1977 0 36.6499 0C27.1021 0 17.9454 3.79285 11.1941 10.5442C4.44275 17.2955 0.649902 26.4522 0.649902 36C0.649902 45.5478 4.44275 54.7045 11.1941 61.4558C17.9454 68.2072 27.1021 72 36.6499 72Z" fill="#FF9235"/>
<path d="M20.2405 15.0288C18.3055 15.2939 16.7417 16.6457 16.1585 18.5453C16.0083 19.0489 15.9995 19.5879 15.9995 27.9108C15.9995 36.2338 16.0083 36.7727 16.1585 37.2763C16.565 38.5928 17.4397 39.6707 18.5794 40.2627C19.4011 40.6956 20.1698 40.8547 21.4068 40.8547H22.3963L22.4228 43.4876C22.4493 45.7318 22.467 46.1471 22.5996 46.3768C23.0148 47.1366 23.916 47.49 24.6405 47.1808C24.7996 47.119 26.1779 46.1294 27.7064 44.9808L30.4896 42.9045L30.5337 45.5639C30.5779 48.0113 30.5956 48.2764 30.7723 48.7358C31.1699 49.8049 31.8855 50.6266 32.8486 51.1126C33.8382 51.6162 34.0502 51.6338 38.8743 51.6338H43.2832L46.7202 54.2049C49.8391 56.5463 50.5371 57.0058 50.9435 57.0234C51.2351 57.0234 51.7475 56.8291 52.0126 56.6082C52.5692 56.1399 52.6222 55.8837 52.6222 53.6395V51.6338H53.3114C54.6897 51.625 55.7234 51.2628 56.5628 50.4676C57.1283 49.9375 57.4994 49.3808 57.7644 48.6652L57.9676 48.1439L57.9941 40.9872C58.0118 36.2956 57.9853 33.6185 57.9235 33.2121C57.6672 31.4715 56.2801 29.996 54.5837 29.6426C54.3009 29.5807 52.9845 29.5454 51.2086 29.5454H48.2929V24.4385C48.2929 19.6232 48.284 19.2875 48.1162 18.6425C47.8953 17.7501 47.5065 17.0875 46.8439 16.416C46.2607 15.8417 45.7306 15.5148 44.8912 15.2055L44.3611 15.0111L32.4333 15.0023C25.8775 14.9935 20.3907 15.0111 20.2405 15.0288ZM44.0254 18.3332C44.3258 18.4481 44.7322 18.8192 44.9001 19.1373C45.0061 19.3405 45.0238 20.7365 45.0238 27.9108C45.0238 34.0514 44.9973 36.4988 44.9266 36.6402C44.7941 36.8876 44.4141 37.3117 44.1844 37.4354C44.0607 37.5149 42.3732 37.5502 38.1322 37.5856C33.1667 37.6209 32.2125 37.6474 32.0004 37.7623C31.859 37.833 30.3835 38.9197 28.7313 40.1655L25.7184 42.445L25.6743 40.5631C25.6478 39.335 25.5947 38.6281 25.5241 38.5045C25.3385 38.1864 24.8084 37.7799 24.4638 37.6828C24.2783 37.6297 23.2975 37.5856 22.2726 37.5856C20.1787 37.5856 20.0285 37.5502 19.5425 36.9406L19.2686 36.596L19.2421 28.0345C19.2244 19.7557 19.2244 19.4642 19.3923 19.1373C19.5778 18.775 19.7634 18.5895 20.1521 18.3863C20.3907 18.2537 21.61 18.2449 32.0976 18.2361C40.1378 18.2361 43.8487 18.2626 44.0254 18.3332ZM54.0359 32.841C54.2038 32.9028 54.4246 33.0795 54.5395 33.2474L54.7427 33.5478V40.5808C54.7427 47.384 54.7339 47.6226 54.5748 47.87C54.2744 48.3206 54.1242 48.3559 52.4455 48.3648C50.7668 48.3648 50.3869 48.4266 49.9716 48.78C49.4857 49.1864 49.4061 49.4338 49.3531 50.8298L49.3089 52.1021L46.9676 50.3439C45.6776 49.3808 44.4848 48.5503 44.3169 48.4884C44.0784 48.4001 42.8591 48.3736 39.2719 48.3648H34.5362L34.2358 48.1615C33.741 47.8346 33.7233 47.6756 33.7233 44.1591L33.7145 40.9695L35.19 40.9165C35.994 40.8812 38.2735 40.8547 40.2438 40.8547C43.0623 40.8547 43.9635 40.8193 44.4495 40.7221C46.0929 40.3776 47.3917 39.2378 48.0101 37.6032C48.231 37.0378 48.2399 36.9052 48.2752 34.8643L48.3105 32.7261L51.0142 32.7349C52.8784 32.7349 53.8238 32.7703 54.0359 32.841Z" fill="white"/>
<path d="M24.084 24.6859V26.2762H32.1684H40.2528V24.6859V23.0955H32.1684H24.084V24.6859Z" fill="white"/>
<path d="M24.084 31.1357V32.7261H28.1041H32.1242V31.1357V29.5453H28.1041H24.084V31.1357Z" fill="white"/>
</svg>
