<svg width="47" height="48" viewBox="0 0 47 48" fill="none" xmlns="http://www.w3.org/2000/svg">
<rect x="1" y="1.43994" width="45" height="45" rx="22.5" stroke="#141C3A" stroke-width="2"/>
<path d="M28.5086 13.8833C26.0694 14.9127 20.5812 17.1993 16.3125 18.9873C7.79595 22.5309 7.91998 22.4659 8.02334 23.2786C8.05434 23.517 8.16804 23.8204 8.28173 23.9288C8.39542 24.048 9.96644 24.7415 11.7752 25.4676L15.0619 26.7897L15.9611 30.3549C16.4572 32.3163 16.912 34.0285 16.974 34.1694C17.1187 34.4945 17.7078 34.7979 18.0489 34.7004C18.1936 34.6679 19.1548 34.0069 20.1884 33.2375L22.0592 31.8287L25.4803 34.2669C28.3846 36.3259 28.953 36.6943 29.2734 36.6943C29.6662 36.6943 30.0486 36.4884 30.2037 36.1742C30.3794 35.8274 34.4723 13.0488 34.3999 12.7779C34.3689 12.6262 34.2242 12.3878 34.0899 12.2469C33.6248 11.7593 33.325 11.846 28.5086 13.8833ZM27.9401 17.015C27.5164 17.4593 25.0462 19.9518 22.4622 22.5525C19.8783 25.1533 17.7078 27.4074 17.6458 27.5591L17.5321 27.8408L17.4184 27.4724C17.3564 27.2665 17.2324 26.7897 17.1394 26.3995C17.0464 26.0203 16.9017 25.576 16.819 25.4134C16.6639 25.0992 16.3539 24.9474 13.5839 23.8421C12.5193 23.4086 12.0439 23.1811 12.1369 23.1161C12.323 22.9968 28.4776 16.2348 28.612 16.224C28.6636 16.2131 28.3639 16.5707 27.9401 17.015ZM31.599 17.1017C31.5163 17.5352 30.8238 21.3822 30.059 25.641C29.2838 29.8998 28.6223 33.4759 28.581 33.5734C28.5189 33.7359 27.8368 33.2916 24.426 30.8642C22.1832 29.2713 20.3434 27.9058 20.3434 27.8517C20.3434 27.7325 31.5473 16.3432 31.6713 16.3323C31.7127 16.3215 31.6713 16.6791 31.599 17.1017ZM19.1342 29.7481C19.651 30.1165 20.085 30.4524 20.085 30.5066C20.085 30.615 18.6794 31.7095 18.545 31.7095C18.5037 31.7095 18.3073 31.0918 18.1213 30.3224C17.9352 29.5638 17.7595 28.8703 17.7285 28.7836C17.6975 28.6752 17.7595 28.6969 17.9249 28.8486C18.0593 28.9787 18.607 29.3796 19.1342 29.7481Z" fill="#141C3A"/>
</svg>
