<svg width="47" height="48" viewBox="0 0 47 48" fill="none" xmlns="http://www.w3.org/2000/svg">
<rect x="1" y="1.43994" width="45" height="45" rx="22.5" stroke="#141C3A" stroke-width="2"/>
<g clip-path="url(#clip0_2_84)">
<path d="M12.7932 14.6874C11.9494 14.863 11.2164 15.6673 11.0529 16.6075C10.9791 17.0153 10.9791 29.1704 11.0529 29.5839C11.227 30.5637 12.0127 31.3624 12.9619 31.504C13.1465 31.538 16.0785 31.5606 19.5748 31.5606H25.8555L25.9768 31.9118C27.1105 35.3102 30.5066 37.1341 33.676 36.0579C34.1928 35.888 34.873 35.5311 35.0102 35.3669C35.3371 34.9817 35.1051 34.3926 34.6252 34.3926C34.525 34.3926 34.2877 34.4719 34.0979 34.5682C33.1592 35.0497 32.2838 35.2253 31.3029 35.1233C29.1725 34.8967 27.4322 33.2712 26.8943 30.9942C26.8152 30.66 26.7941 30.3825 26.7994 29.6632C26.8047 28.8475 26.8205 28.7059 26.9471 28.2528C27.4639 26.4233 28.7348 25.0583 30.4328 24.5032C30.86 24.3673 30.9918 24.3503 31.7512 24.3446C32.4209 24.3389 32.6793 24.3616 32.9904 24.4466C34.757 24.928 36.1018 26.2874 36.6396 28.1282C36.8348 28.8079 36.9402 30.0596 36.8453 30.5637C36.7557 31.0169 36.4076 31.402 36.0174 31.4926C35.4584 31.6229 34.968 31.3567 34.7254 30.796C34.641 30.5977 34.6252 30.4108 34.6252 29.193C34.6252 27.6807 34.6041 27.5618 34.3088 27.3975C34.1189 27.2899 34.0082 27.2899 33.8131 27.3975C33.6707 27.4768 33.6549 27.4712 33.4703 27.3182C32.6687 26.6442 31.4664 26.5366 30.5066 27.0633C30.1955 27.2276 29.6734 27.743 29.4625 28.0885C28.4658 29.7028 29.1936 31.9401 30.9232 32.5858C31.825 32.9257 32.9219 32.6878 33.6443 31.9967L33.908 31.7475L34.177 32.0364C35.4373 33.3901 37.6152 32.6594 37.9475 30.7676C37.9738 30.6034 38.0002 30.2012 38.0002 29.8671C38.0002 27.6694 37.1037 25.7153 35.5059 24.4182C34.7465 23.8008 33.5547 23.2741 32.6371 23.1495L32.3576 23.1098V19.87C32.3576 16.8341 32.3523 16.6075 32.2574 16.313C31.9937 15.4917 31.3979 14.8969 30.6437 14.7044C30.3748 14.6421 28.9668 14.6251 21.6789 14.6307C16.9223 14.6364 12.925 14.6591 12.7932 14.6874ZM30.1322 15.8655C30.1059 15.9505 22.1799 22.9173 22.0322 22.9909C21.8424 23.0815 21.4996 23.0815 21.3361 22.9909C21.199 22.9116 13.6264 16.2676 13.3469 15.9788L13.1887 15.8145H21.6736C26.6201 15.8145 30.1428 15.8372 30.1322 15.8655ZM16.4529 20.2891C18.7363 22.2999 20.7033 23.9991 20.8299 24.0671C21.3203 24.3333 21.9848 24.3446 22.5068 24.0954C22.6334 24.0387 24.6162 22.3282 26.9154 20.3005C29.2199 18.2671 31.1184 16.6075 31.1447 16.6075C31.2344 16.6075 31.2502 16.9926 31.2502 19.9833V23.1042L30.8441 23.1778C28.6873 23.546 26.8152 25.1829 26.0295 27.3749C25.7605 28.1339 25.576 29.4026 25.6445 30.0257L25.6762 30.3145L19.2637 30.3032L12.8564 30.2862L12.6244 30.1163C12.5031 30.02 12.3396 29.8274 12.2658 29.6915L12.134 29.4366V23.1212C12.134 19.6491 12.1498 16.7604 12.1762 16.7038C12.1973 16.6471 12.2342 16.6075 12.2605 16.6188C12.2869 16.6301 14.1748 18.2784 16.4529 20.2891ZM32.5264 28.0942C32.8164 28.2471 33.1697 28.6096 33.3068 28.8985C33.5336 29.3743 33.5336 30.0596 33.3121 30.5354C32.8902 31.419 31.8566 31.7815 31.0393 31.3341C30.7703 31.1868 30.4328 30.8073 30.2904 30.4958C30.1164 30.1106 30.1164 29.3233 30.2957 28.9551C30.5172 28.4964 30.9021 28.1452 31.3557 27.9866C31.6141 27.896 32.2627 27.9583 32.5264 28.0942Z" fill="#141C3A"/>
</g>
<defs>
<clipPath id="clip0_2_84">
<rect width="27" height="29" fill="white" transform="translate(11 11)"/>
</clipPath>
</defs>
</svg>
