<svg width="48" height="48" viewBox="0 0 48 48" fill="none" xmlns="http://www.w3.org/2000/svg">
<rect x="1.7998" y="1.43994" width="45" height="45" rx="22.5" stroke="#141C3A" stroke-width="2"/>
<path d="M12 23.5815V36.1631H24H36V23.5815V10.9998H24H12V23.5815ZM21.7641 15.2215C22.125 15.2461 22.2844 15.2805 22.3172 15.3297C22.3406 15.369 22.3594 16.6566 22.3594 18.308C22.3594 19.9102 22.3781 21.2224 22.3969 21.2224C22.4203 21.2224 22.4766 21.1733 22.5281 21.1143C22.7203 20.8882 23.3344 20.4115 23.6016 20.2886C24.1781 20.0134 25.2 19.8807 25.8938 19.9937C26.8266 20.1412 27.7172 20.6818 28.2281 21.4042C28.4625 21.7434 28.7672 22.4019 28.8281 22.7214C28.8891 23.0359 28.9641 26.3583 28.9688 28.9483V30.9535H27.3094H25.65L25.6313 27.6951C25.6172 24.4464 25.6172 24.4415 25.5141 24.2056C25.3359 23.8075 25.1016 23.5126 24.8344 23.3554C24.6 23.2227 24.5578 23.2129 24.0469 23.2129C23.5922 23.2129 23.475 23.2276 23.2922 23.3161C22.9172 23.4979 22.5844 23.9157 22.4438 24.3924C22.4156 24.4759 22.3781 25.9159 22.3594 27.6803C22.3359 29.4988 22.3031 30.8356 22.2797 30.8601C22.2516 30.8896 21.5203 30.924 20.6344 30.9388L19.0313 30.9682V23.0752V15.1773L20.1469 15.1822C20.7563 15.1822 21.4875 15.2019 21.7641 15.2215Z" fill="#141C3A"/>
</svg>
